<svg stroke="10px solid red" id="Layer_1" data-name="Layer 1" xmlns="http://www.w3.org/2000/svg" viewBox="0 0 409.6 409.6"><path d="M282.92,271.8c-.63,6.69-4.76,12.47-10.83,14.52a14.6,14.6,0,0,1-16.89-5.48A76.11,76.11,0,0,0,233.51,260c-23-14.26-48.82-11.07-69.36,8.77a119.2,119.2,0,0,0-10.46,12.16c-5.22,6.61-13.84,8.18-20.62,3.53s-8.87-13.68-3.94-20.47c19.28-26.61,44.23-43.41,78.31-42.58,24.49.6,44.42,11.8,61.19,29a108.65,108.65,0,0,1,10.66,13C281,265.84,281.74,269,282.92,271.8Z"/><path d="M139.25,122.46a18.7,18.7,0,1,1-18.65,18.85A18.71,18.71,0,0,1,139.25,122.46Z"/><path d="M270.3,159.86a18.7,18.7,0,1,1,18.7-18.8A18.72,18.72,0,0,1,270.3,159.86Z"/><path d="M192.8,0h24c5.4.65,10.82,1.19,16.21,2,40.38,5.71,76.08,21.84,106.65,48.83,36,31.79,58.51,71.35,66.79,118.78,1.35,7.7,2.12,15.49,3.15,23.24v24c-.25,1.41-.54,2.81-.73,4.23-1,7.39-1.55,14.85-2.93,22.16a200,200,0,0,1-55.51,105.5c-30.6,30.9-67.38,50.35-110.33,57.76-7.72,1.33-15.53,2.11-23.3,3.15h-24c-5.4-.65-10.82-1.19-16.21-2-40.38-5.71-76.08-21.84-106.65-48.83C34,327,11.43,287.47,3.15,240,1.8,232.34,1,224.55,0,216.8v-24c.25-1.41.54-2.81.73-4.23,1-7.39,1.55-14.85,2.93-22.16A200,200,0,0,1,59.17,60.91C89.77,30,126.55,10.56,169.5,3.15,177.22,1.82,185,1,192.8,0ZM385.21,204.76c-.1-99.48-81.13-180.48-180.45-180.37-99.48.1-180.47,81.13-180.37,180.45.1,99.48,81.13,180.47,180.45,180.37C304.32,385.11,385.31,304.09,385.21,204.76Z"/></svg>