<svg id="Layer_1" data-name="Layer 1" xmlns="http://www.w3.org/2000/svg" viewBox="0 0 409.6 409.6"><path d="M192.8,0h24c5.4.65,10.82,1.19,16.21,2,40.38,5.71,76.08,21.84,106.65,48.83,36,31.79,58.51,71.35,66.79,118.78,1.35,7.7,2.12,15.49,3.15,23.24v24c-.25,1.41-.54,2.81-.73,4.23-1,7.39-1.55,14.85-2.93,22.16a200,200,0,0,1-55.51,105.5c-30.6,30.9-67.38,50.35-110.33,57.76-7.72,1.33-15.53,2.11-23.3,3.15h-24c-5.4-.65-10.82-1.19-16.21-2-40.38-5.71-76.08-21.84-106.65-48.83C34,327,11.43,287.47,3.15,240,1.8,232.34,1,224.55,0,216.8v-24c.25-1.41.54-2.81.73-4.23,1-7.39,1.55-14.85,2.93-22.16A200,200,0,0,1,59.17,60.91C89.77,30,126.55,10.56,169.5,3.15,177.22,1.82,185,1,192.8,0ZM385.21,204.76c-.1-99.48-81.13-180.48-180.45-180.37-99.48.1-180.47,81.13-180.37,180.45.1,99.48,81.13,180.47,180.45,180.37C304.32,385.11,385.31,304.09,385.21,204.76Z"/><path d="M205,213.69H309.75c11.12,0,15.47,4.52,15.11,15.62-1.69,51.48-34.71,95.34-83.82,111.33-47.44,15.44-101.85-1.95-131.84-42-15.58-20.8-23.86-44.06-24.5-70.06C84.46,218.55,89,213.7,99,213.7Q152,213.67,205,213.69ZM110,238.43c4.78,44.26,44.61,83.79,95.6,83.31,51.83-.48,89.75-41.48,93.85-83.31Z"/><path d="M124.12,135.82a50.51,50.51,0,0,1,35.39,14c5.47,5.1,6,12.27,1.51,17.48s-11.91,5.76-17.47.75c-10.85-9.76-23.87-9.55-32.82-4.1a63.31,63.31,0,0,0-6,4.55c-5.54,4.33-12.81,3.78-17.21-1.33-4.25-4.94-3.84-12.13,1.18-16.92A50.12,50.12,0,0,1,124.12,135.82Z"/><path d="M285.4,135.82A50.22,50.22,0,0,1,320.67,150c5.21,4.91,5.77,12.19,1.45,17.21a11.88,11.88,0,0,1-17.44,1c-10.53-9.63-23.68-9.89-33.15-4.11a73.74,73.74,0,0,0-6,4.58c-5.44,4.16-12.64,3.59-16.91-1.33s-4.07-12.08.94-16.93A50.34,50.34,0,0,1,285.4,135.82Z"/></svg>