<svg id="Layer_1" data-name="Layer 1" xmlns="http://www.w3.org/2000/svg" viewBox="0 0 409.6 409.6"><path d="M204.71,274.78c-19.7,0-39.4.06-59.1,0-10.71-.05-17.84-9.95-14.48-19.81,2.1-6.16,7.68-10.08,14.66-10.09q30.86-.06,61.72,0h55.36c10.4,0,17.21,6,17.16,15s-6.85,14.89-17.34,14.89Z"/><path d="M139.43,134.8a18.71,18.71,0,1,1-18.85,18.65A18.73,18.73,0,0,1,139.43,134.8Z"/><path d="M289,153.59a18.71,18.71,0,1,1-18.71-18.79A18.75,18.75,0,0,1,289,153.59Z"/><path d="M192.8,0h24c5.4.65,10.82,1.19,16.21,2,40.38,5.71,76.08,21.84,106.65,48.83,36,31.79,58.51,71.35,66.79,118.78,1.35,7.7,2.12,15.49,3.15,23.24v24c-.25,1.41-.54,2.81-.73,4.23-1,7.39-1.55,14.85-2.93,22.16a200,200,0,0,1-55.51,105.5c-30.6,30.9-67.38,50.35-110.33,57.76-7.72,1.33-15.53,2.11-23.3,3.15h-24c-5.4-.65-10.82-1.19-16.21-2-40.38-5.71-76.08-21.84-106.65-48.83C34,327,11.43,287.47,3.15,240,1.8,232.34,1,224.55,0,216.8v-24c.25-1.41.54-2.81.73-4.23,1-7.39,1.55-14.85,2.93-22.16A200,200,0,0,1,59.17,60.91C89.77,30,126.55,10.56,169.5,3.15,177.22,1.82,185,1,192.8,0ZM385.21,204.76c-.1-99.48-81.13-180.48-180.45-180.37-99.48.1-180.47,81.13-180.37,180.45.1,99.48,81.13,180.47,180.45,180.37C304.32,385.11,385.31,304.09,385.21,204.76Z"/></svg>